<svg width="56" height="56" viewBox="0 0 56 56" fill="none" xmlns="http://www.w3.org/2000/svg">
<rect width="56" height="56" rx="11" fill="#F6F6F6"/>
<path d="M37.47 27.185L36.44 25.755C36.2095 25.4312 35.9051 25.1671 35.552 24.9844C35.199 24.8018 34.8075 24.706 34.41 24.705H30.03V22.565C30.03 21.902 29.7666 21.2661 29.2978 20.7972C28.8289 20.3284 28.193 20.065 27.53 20.065H20.56C19.8975 20.0668 19.2627 20.3308 18.7943 20.7993C18.3258 21.2677 18.0618 21.9025 18.06 22.565V32.505C18.06 32.9028 18.218 33.2844 18.4993 33.5657C18.7806 33.847 19.1622 34.005 19.56 34.005H20.78C20.8555 34.54 21.1217 35.0298 21.5296 35.3842C21.9375 35.7385 22.4597 35.9337 23 35.9337C23.5403 35.9337 24.0625 35.7385 24.4704 35.3842C24.8783 35.0298 25.1445 34.54 25.22 34.005H30.78C30.8555 34.54 31.1217 35.0298 31.5296 35.3842C31.9375 35.7385 32.4597 35.9337 33 35.9337C33.5403 35.9337 34.0625 35.7385 34.4704 35.3842C34.8783 35.0298 35.1445 34.54 35.22 34.005H36.44C36.8378 34.005 37.2194 33.847 37.5007 33.5657C37.782 33.2844 37.94 32.9028 37.94 32.505V28.635C37.9376 28.1146 37.7733 27.6079 37.47 27.185ZM23 34.935C22.7528 34.935 22.5111 34.8617 22.3055 34.7243C22.1 34.587 21.9398 34.3918 21.8452 34.1634C21.7505 33.9349 21.7258 33.6836 21.774 33.4411C21.8223 33.1987 21.9413 32.9759 22.1161 32.8011C22.2909 32.6263 22.5137 32.5073 22.7561 32.459C22.9986 32.4108 23.2499 32.4355 23.4784 32.5302C23.7068 32.6248 23.902 32.785 24.0393 32.9905C24.1767 33.1961 24.25 33.4378 24.25 33.685C24.25 34.0165 24.1183 34.3345 23.8839 34.5689C23.6495 34.8033 23.3315 34.935 23 34.935ZM29.03 33.005H25.15C25.0044 32.5491 24.7177 32.1513 24.3312 31.8691C23.9447 31.5868 23.4786 31.4347 23 31.4347C22.5214 31.4347 22.0553 31.5868 21.6688 31.8691C21.2823 32.1513 20.9956 32.5491 20.85 33.005H19.56C19.4274 33.005 19.3002 32.9523 19.2064 32.8586C19.1127 32.7648 19.06 32.6376 19.06 32.505V22.565C19.06 22.1672 19.218 21.7856 19.4993 21.5043C19.7806 21.223 20.1622 21.065 20.56 21.065H27.53C27.9278 21.065 28.3094 21.223 28.5907 21.5043C28.872 21.7856 29.03 22.1672 29.03 22.565V33.005ZM33 34.935C32.7528 34.935 32.5111 34.8617 32.3055 34.7243C32.1 34.587 31.9398 34.3918 31.8452 34.1634C31.7505 33.9349 31.7258 33.6836 31.774 33.4411C31.8223 33.1987 31.9413 32.9759 32.1161 32.8011C32.2909 32.6263 32.5137 32.5073 32.7561 32.459C32.9986 32.4108 33.2499 32.4355 33.4784 32.5302C33.7068 32.6248 33.902 32.785 34.0393 32.9905C34.1767 33.1961 34.25 33.4378 34.25 33.685C34.25 34.0165 34.1183 34.3345 33.8839 34.5689C33.6495 34.8033 33.3315 34.935 33 34.935ZM36.94 32.505C36.94 32.6376 36.8873 32.7648 36.7936 32.8586C36.6998 32.9523 36.5726 33.005 36.44 33.005H35.15C35.0044 32.5491 34.7177 32.1513 34.3312 31.8691C33.9447 31.5868 33.4786 31.4347 33 31.4347C32.5214 31.4347 32.0553 31.5868 31.6688 31.8691C31.2823 32.1513 30.9956 32.5491 30.85 33.005H30.03V25.705H34.41C34.6486 25.7066 34.8834 25.7645 35.0954 25.874C35.3074 25.9834 35.4906 26.1414 35.63 26.335L36.66 27.765C36.84 28.0196 36.9377 28.3232 36.94 28.635V32.505Z" fill="#797979"/>
<path d="M34.029 28.205H32.029C31.8964 28.205 31.7692 28.1523 31.6754 28.0586C31.5817 27.9648 31.529 27.8376 31.529 27.705C31.529 27.5724 31.5817 27.4452 31.6754 27.3515C31.7692 27.2577 31.8964 27.205 32.029 27.205H34.029C34.1616 27.205 34.2888 27.2577 34.3826 27.3515C34.4763 27.4452 34.529 27.5724 34.529 27.705C34.529 27.8376 34.4763 27.9648 34.3826 28.0586C34.2888 28.1523 34.1616 28.205 34.029 28.205Z" fill="#797979"/>
</svg>
