<svg width="57" height="56" viewBox="0 0 57 56" fill="none" xmlns="http://www.w3.org/2000/svg">
<rect x="0.666687" width="56" height="56" rx="11" fill="#F6F6F6"/>
<path d="M27.4567 31.17C27.2567 31.17 27.0667 31.09 26.9267 30.95L24.5067 28.53C24.2167 28.24 24.2167 27.76 24.5067 27.47C24.7967 27.18 25.2767 27.18 25.5667 27.47L27.4567 29.36L31.7567 25.06C32.0467 24.77 32.5267 24.77 32.8167 25.06C33.1067 25.35 33.1067 25.83 32.8167 26.12L27.9867 30.95C27.8467 31.09 27.6567 31.17 27.4567 31.17Z" fill="#797979"/>
<path d="M28.6667 38.75C28.0367 38.75 27.4067 38.54 26.9167 38.12L25.3367 36.76C25.1767 36.62 24.7767 36.48 24.5667 36.48H22.8467C21.3667 36.48 20.1667 35.28 20.1667 33.8V32.09C20.1667 31.88 20.0267 31.49 19.8867 31.33L18.5367 29.74C17.7167 28.77 17.7167 27.24 18.5367 26.27L19.8867 24.68C20.0267 24.52 20.1667 24.13 20.1667 23.92V22.2C20.1667 20.72 21.3667 19.52 22.8467 19.52H24.5767C24.7867 19.52 25.1867 19.37 25.3467 19.24L26.9267 17.88C27.9067 17.04 29.4367 17.04 30.4167 17.88L31.9967 19.24C32.1567 19.38 32.5567 19.52 32.7667 19.52H34.4667C35.9467 19.52 37.1467 20.72 37.1467 22.2V23.9C37.1467 24.11 37.2967 24.51 37.4367 24.67L38.7967 26.25C39.6367 27.23 39.6367 28.76 38.7967 29.74L37.4367 31.32C37.2967 31.48 37.1467 31.88 37.1467 32.09V33.79C37.1467 35.27 35.9467 36.47 34.4667 36.47H32.7667C32.5567 36.47 32.1567 36.62 31.9967 36.75L30.4167 38.11C29.9267 38.54 29.2967 38.75 28.6667 38.75ZM22.8467 21.02C22.1967 21.02 21.6667 21.55 21.6667 22.2V23.91C21.6667 24.48 21.3967 25.21 21.0267 25.64L19.6767 27.23C19.3267 27.64 19.3267 28.35 19.6767 28.76L21.0267 30.35C21.3967 30.79 21.6667 31.51 21.6667 32.08V33.79C21.6667 34.44 22.1967 34.97 22.8467 34.97H24.5767C25.1567 34.97 25.8867 35.24 26.3267 35.62L27.9067 36.98C28.3167 37.33 29.0367 37.33 29.4467 36.98L31.0267 35.62C31.4667 35.25 32.1967 34.97 32.7767 34.97H34.4767C35.1267 34.97 35.6567 34.44 35.6567 33.79V32.09C35.6567 31.51 35.9267 30.78 36.3067 30.34L37.6667 28.76C38.0167 28.35 38.0167 27.63 37.6667 27.22L36.3067 25.64C35.9267 25.2 35.6567 24.47 35.6567 23.89V22.2C35.6567 21.55 35.1267 21.02 34.4767 21.02H32.7767C32.1967 21.02 31.4667 20.75 31.0267 20.37L29.4467 19.01C29.0367 18.66 28.3167 18.66 27.9067 19.01L26.3267 20.38C25.8867 20.75 25.1467 21.02 24.5767 21.02H22.8467Z" fill="#797979"/>
</svg>
