<svg width="57" height="56" viewBox="0 0 57 56" fill="none" xmlns="http://www.w3.org/2000/svg">
<rect x="0.333328" width="56" height="56" rx="11" fill="#F6F6F6"/>
<path fill-rule="evenodd" clip-rule="evenodd" d="M23.7686 17.25H32.898C33.4679 17.25 33.9519 17.25 34.3518 17.2913C34.7776 17.3353 35.1711 17.4309 35.5429 17.6607C35.9147 17.8905 36.1762 18.1997 36.406 18.5609C36.6218 18.9001 36.8382 19.333 37.0931 19.8428L37.1096 19.8757C37.1193 19.8952 37.1282 19.915 37.1362 19.9353L38.5398 23.4834C38.7068 23.9056 38.8919 24.4323 38.946 24.9713C39.0014 25.5226 38.9254 26.1541 38.4934 26.7019C38.1401 27.15 37.6488 27.4863 37.0833 27.6463V37.25H38.3333C38.7475 37.25 39.0833 37.5858 39.0833 38C39.0833 38.4142 38.7475 38.75 38.3333 38.75H18.3333C17.9191 38.75 17.5833 38.4142 17.5833 38C17.5833 37.5858 17.9191 37.25 18.3333 37.25H19.5833V27.6464C19.0178 27.4863 18.5264 27.15 18.1731 26.7019C17.7411 26.1541 17.6651 25.5226 17.7205 24.9713C17.7746 24.4323 17.9597 23.9056 18.1267 23.4834L19.5303 19.9353C19.5383 19.915 19.5472 19.8952 19.5569 19.8757L19.5734 19.8428C19.8283 19.333 20.0447 18.9001 20.2606 18.5609C20.4904 18.1997 20.7519 17.8905 21.1236 17.6607C21.4954 17.4309 21.8889 17.3353 22.3147 17.2913C22.7147 17.25 23.1986 17.25 23.7686 17.25ZM34.3332 26.8875C34.6692 27.2433 35.0991 27.5096 35.5833 27.6465V37.25H31.5833V34.4678C31.5833 34.028 31.5833 33.6486 31.5551 33.3374C31.5253 33.0082 31.4592 32.6822 31.2819 32.375C31.0844 32.033 30.8003 31.7489 30.4583 31.5514C30.1511 31.3741 29.8251 31.308 29.496 31.2782C29.1847 31.25 28.8053 31.25 28.3655 31.25H28.3011C27.8613 31.25 27.4819 31.25 27.1706 31.2782C26.8415 31.308 26.5155 31.3741 26.2083 31.5514C25.8663 31.7489 25.5822 32.033 25.3848 32.375C25.2074 32.6822 25.1413 33.0082 25.1115 33.3374C25.0833 33.6486 25.0833 34.028 25.0833 34.4677V37.25H21.0833V27.6465C21.5675 27.5095 21.9973 27.2433 22.3332 26.8875C22.8346 27.4186 23.5452 27.75 24.3332 27.75C25.1213 27.75 25.8319 27.4186 26.3332 26.8875C26.8346 27.4186 27.5452 27.75 28.3332 27.75C29.1212 27.75 29.8318 27.4186 30.3332 26.8875C30.8346 27.4186 31.5452 27.75 32.3332 27.75C33.1212 27.75 33.8318 27.4186 34.3332 26.8875ZM26.5833 37.25H30.0833V34.5C30.0833 34.0189 30.0826 33.7082 30.0612 33.4727C30.0408 33.2476 30.0064 33.1659 29.9828 33.125C29.917 33.011 29.8223 32.9163 29.7083 32.8505C29.6674 32.8269 29.5857 32.7925 29.3606 32.7721C29.1251 32.7507 28.8144 32.75 28.3333 32.75C27.8522 32.75 27.5415 32.7507 27.306 32.7721C27.0809 32.7925 26.9992 32.8269 26.9583 32.8505C26.8443 32.9163 26.7496 33.011 26.6838 33.125C26.6602 33.1659 26.6258 33.2476 26.6054 33.4727C26.584 33.7082 26.5833 34.0189 26.5833 34.5V37.25ZM23.0832 25C23.0832 25.6904 23.6429 26.25 24.3332 26.25C25.0236 26.25 25.5832 25.6904 25.5832 25C25.5832 24.5858 25.919 24.25 26.3332 24.25C26.7474 24.25 27.0832 24.5858 27.0832 25C27.0832 25.6904 27.6429 26.25 28.3332 26.25C29.0236 26.25 29.5832 25.6904 29.5832 25C29.5832 24.5858 29.919 24.25 30.3332 24.25C30.7474 24.25 31.0832 24.5858 31.0832 25C31.0832 25.6904 31.6429 26.25 32.3332 26.25C33.0236 26.25 33.5832 25.6904 33.5832 25C33.5832 24.5858 33.919 24.25 34.3332 24.25C34.7474 24.25 35.0832 24.5858 35.0832 25C35.0832 25.6904 35.6429 26.25 36.3332 26.25C36.7312 26.25 37.0855 26.0649 37.3156 25.7731C37.4295 25.6286 37.4846 25.4309 37.4535 25.1211C37.4212 24.799 37.3023 24.4328 37.145 24.0352L35.7534 20.5174C35.4857 19.982 35.3068 19.6275 35.1404 19.3661C34.9805 19.1147 34.8658 19.0056 34.7543 18.9367C34.6428 18.8678 34.4939 18.814 34.1975 18.7834C33.8838 18.7509 33.4779 18.75 32.8611 18.75H23.8055C23.1887 18.75 22.7827 18.7509 22.469 18.7834C22.1726 18.814 22.0238 18.8678 21.9122 18.9367C21.8007 19.0056 21.6861 19.1147 21.5261 19.3661C21.3598 19.6275 21.1809 19.982 20.9132 20.5174L19.5216 24.0352C19.3643 24.4328 19.2453 24.799 19.213 25.1212C19.1819 25.431 19.237 25.6286 19.3509 25.7731C19.581 26.0649 19.9353 26.25 20.3332 26.25C21.0236 26.25 21.5832 25.6904 21.5832 25C21.5832 24.5858 21.919 24.25 22.3332 24.25C22.7475 24.25 23.0832 24.5858 23.0832 25Z" fill="#797979"/>
</svg>
