<svg width="1120" height="48" viewBox="0 0 1120 48" fill="none" xmlns="http://www.w3.org/2000/svg">
<line y1="11.75" x2="548" y2="11.75" stroke="url(#paint0_linear_332_2064)" stroke-width="0.5" stroke-dasharray="3 3"/>
<path fill-rule="evenodd" clip-rule="evenodd" d="M572 12C572 18.6274 566.627 24 560 24C553.373 24 548 18.6274 548 12C548 5.37258 553.373 0 560 0C566.627 0 572 5.37258 572 12ZM560 18C559.448 18 559 17.5523 559 17V13H555C554.448 13 554 12.5523 554 12C554 11.4477 554.448 11 555 11H559V7C559 6.44771 559.448 6 560 6C560.552 6 561 6.44771 561 7V11H565C565.552 11 566 11.4477 566 12C566 12.5523 565.552 13 565 13H561V17C561 17.5523 560.552 18 560 18Z" fill="black"/>
<line x1="1120" y1="12.25" x2="572" y2="12.25" stroke="url(#paint1_linear_332_2064)" stroke-width="0.5" stroke-dasharray="3 3"/>
<path d="M514.005 45L513.014 42.1768H509.09L508.099 45H506.807L510.444 35.1357H511.66L515.297 45H514.005ZM511.031 36.6328L509.452 41.1309H512.652L511.073 36.6328H511.031ZM518.897 45.123C517.986 45.123 517.25 44.7881 516.689 44.1182C516.133 43.4482 515.855 42.5573 515.855 41.4453C515.855 40.3379 516.133 39.4492 516.689 38.7793C517.245 38.1048 517.972 37.7676 518.87 37.7676C519.371 37.7676 519.82 37.8815 520.216 38.1094C520.613 38.3372 520.918 38.6494 521.132 39.0459H521.16V35.1357H522.349V45H521.215V43.7969H521.194C520.962 44.2116 520.647 44.5374 520.251 44.7744C519.854 45.0068 519.403 45.123 518.897 45.123ZM519.123 38.8135C518.494 38.8135 517.995 39.0527 517.626 39.5312C517.256 40.0052 517.072 40.6432 517.072 41.4453C517.072 42.252 517.256 42.8923 517.626 43.3662C517.995 43.8402 518.494 44.0771 519.123 44.0771C519.738 44.0771 520.232 43.8379 520.606 43.3594C520.98 42.8763 521.167 42.2383 521.167 41.4453C521.167 40.6523 520.978 40.0166 520.599 39.5381C520.226 39.055 519.733 38.8135 519.123 38.8135ZM526.749 45.123C525.838 45.123 525.102 44.7881 524.541 44.1182C523.985 43.4482 523.707 42.5573 523.707 41.4453C523.707 40.3379 523.985 39.4492 524.541 38.7793C525.097 38.1048 525.824 37.7676 526.722 37.7676C527.223 37.7676 527.672 37.8815 528.068 38.1094C528.465 38.3372 528.77 38.6494 528.984 39.0459H529.012V35.1357H530.201V45H529.066V43.7969H529.046C528.814 44.2116 528.499 44.5374 528.103 44.7744C527.706 45.0068 527.255 45.123 526.749 45.123ZM526.975 38.8135C526.346 38.8135 525.847 39.0527 525.478 39.5312C525.108 40.0052 524.924 40.6432 524.924 41.4453C524.924 42.252 525.108 42.8923 525.478 43.3662C525.847 43.8402 526.346 44.0771 526.975 44.0771C527.59 44.0771 528.084 43.8379 528.458 43.3594C528.832 42.8763 529.019 42.2383 529.019 41.4453C529.019 40.6523 528.829 40.0166 528.451 39.5381C528.078 39.055 527.585 38.8135 526.975 38.8135ZM536.28 45H535.063V35.1357H536.26L541.66 42.8809H541.722V35.1357H542.938V45H541.742L536.342 37.2822H536.28V45ZM547.618 38.7998C547.067 38.7998 546.609 38.9912 546.244 39.374C545.884 39.7523 545.686 40.2399 545.65 40.8369H549.512C549.498 40.2354 549.318 39.7454 548.972 39.3672C548.626 38.9889 548.174 38.7998 547.618 38.7998ZM549.485 42.9629H550.654C550.549 43.5918 550.221 44.109 549.669 44.5146C549.122 44.9202 548.464 45.123 547.694 45.123C546.677 45.123 545.878 44.7949 545.294 44.1387C544.711 43.4824 544.419 42.5938 544.419 41.4727C544.419 40.3607 544.711 39.4652 545.294 38.7861C545.882 38.1071 546.664 37.7676 547.639 37.7676C548.596 37.7676 549.352 38.0889 549.908 38.7314C550.464 39.374 550.742 40.2354 550.742 41.3154V41.7666H545.643V41.835C545.643 42.5186 545.83 43.0654 546.203 43.4756C546.577 43.8857 547.083 44.0908 547.721 44.0908C548.168 44.0908 548.548 43.9883 548.863 43.7832C549.177 43.5781 549.384 43.3047 549.485 42.9629ZM561.089 37.8906L559.107 45H557.897L556.291 39.4971H556.263L554.664 45H553.454L551.464 37.8906H552.647L554.069 43.6738H554.096L555.703 37.8906H556.851L558.464 43.6738H558.492L559.914 37.8906H561.089ZM571.735 45L570.744 42.1768H566.82L565.829 45H564.537L568.173 35.1357H569.39L573.027 45H571.735ZM568.761 36.6328L567.182 41.1309H570.381L568.802 36.6328H568.761ZM576.627 45.123C575.715 45.123 574.979 44.7881 574.419 44.1182C573.863 43.4482 573.585 42.5573 573.585 41.4453C573.585 40.3379 573.863 39.4492 574.419 38.7793C574.975 38.1048 575.702 37.7676 576.599 37.7676C577.101 37.7676 577.55 37.8815 577.946 38.1094C578.343 38.3372 578.648 38.6494 578.862 39.0459H578.889V35.1357H580.079V45H578.944V43.7969H578.924C578.691 44.2116 578.377 44.5374 577.98 44.7744C577.584 45.0068 577.133 45.123 576.627 45.123ZM576.852 38.8135C576.223 38.8135 575.724 39.0527 575.355 39.5312C574.986 40.0052 574.802 40.6432 574.802 41.4453C574.802 42.252 574.986 42.8923 575.355 43.3662C575.724 43.8402 576.223 44.0771 576.852 44.0771C577.468 44.0771 577.962 43.8379 578.336 43.3594C578.709 42.8763 578.896 42.2383 578.896 41.4453C578.896 40.6523 578.707 40.0166 578.329 39.5381C577.955 39.055 577.463 38.8135 576.852 38.8135ZM584.479 45.123C583.567 45.123 582.831 44.7881 582.271 44.1182C581.715 43.4482 581.437 42.5573 581.437 41.4453C581.437 40.3379 581.715 39.4492 582.271 38.7793C582.827 38.1048 583.554 37.7676 584.451 37.7676C584.953 37.7676 585.402 37.8815 585.798 38.1094C586.195 38.3372 586.5 38.6494 586.714 39.0459H586.741V35.1357H587.931V45H586.796V43.7969H586.776C586.543 44.2116 586.229 44.5374 585.832 44.7744C585.436 45.0068 584.985 45.123 584.479 45.123ZM584.704 38.8135C584.075 38.8135 583.576 39.0527 583.207 39.5312C582.838 40.0052 582.654 40.6432 582.654 41.4453C582.654 42.252 582.838 42.8923 583.207 43.3662C583.576 43.8402 584.075 44.0771 584.704 44.0771C585.32 44.0771 585.814 43.8379 586.188 43.3594C586.561 42.8763 586.748 42.2383 586.748 41.4453C586.748 40.6523 586.559 40.0166 586.181 39.5381C585.807 39.055 585.315 38.8135 584.704 38.8135ZM589.637 45V37.8906H590.758V39.0527H590.786C590.904 38.6562 591.116 38.3441 591.422 38.1162C591.731 37.8838 592.094 37.7676 592.508 37.7676C592.604 37.7676 592.764 37.7835 592.987 37.8154V38.9707C592.859 38.9251 592.647 38.9023 592.351 38.9023C591.891 38.9023 591.522 39.055 591.244 39.3604C590.966 39.6657 590.827 40.069 590.827 40.5703V45H589.637ZM596.566 38.7998C596.015 38.7998 595.557 38.9912 595.192 39.374C594.832 39.7523 594.634 40.2399 594.598 40.8369H598.46C598.446 40.2354 598.266 39.7454 597.92 39.3672C597.574 38.9889 597.122 38.7998 596.566 38.7998ZM598.433 42.9629H599.602C599.497 43.5918 599.169 44.109 598.617 44.5146C598.07 44.9202 597.412 45.123 596.642 45.123C595.625 45.123 594.826 44.7949 594.242 44.1387C593.659 43.4824 593.367 42.5938 593.367 41.4727C593.367 40.3607 593.659 39.4652 594.242 38.7861C594.83 38.1071 595.612 37.7676 596.587 37.7676C597.544 37.7676 598.301 38.0889 598.856 38.7314C599.412 39.374 599.69 40.2354 599.69 41.3154V41.7666H594.591V41.835C594.591 42.5186 594.778 43.0654 595.151 43.4756C595.525 43.8857 596.031 44.0908 596.669 44.0908C597.116 44.0908 597.496 43.9883 597.811 43.7832C598.125 43.5781 598.332 43.3047 598.433 42.9629ZM600.871 39.8525C600.871 39.2419 601.117 38.7428 601.609 38.3555C602.106 37.9635 602.744 37.7676 603.523 37.7676C604.257 37.7676 604.867 37.9635 605.355 38.3555C605.843 38.7474 606.1 39.2441 606.127 39.8457H604.993C604.952 39.4993 604.797 39.2282 604.528 39.0322C604.263 38.8363 603.915 38.7383 603.482 38.7383C603.049 38.7383 602.7 38.8363 602.436 39.0322C602.172 39.2236 602.04 39.4766 602.04 39.791C602.04 40.2741 602.434 40.6159 603.222 40.8164L604.323 41.083C605.038 41.2653 605.542 41.5023 605.833 41.7939C606.13 42.0811 606.278 42.4867 606.278 43.0107C606.278 43.6305 606.013 44.1387 605.485 44.5352C604.956 44.9271 604.277 45.123 603.448 45.123C602.673 45.123 602.033 44.9316 601.527 44.5488C601.026 44.1615 600.743 43.651 600.679 43.0176H601.869C602.001 43.7741 602.552 44.1523 603.523 44.1523C604.001 44.1523 604.38 44.0589 604.658 43.8721C604.94 43.6807 605.081 43.4232 605.081 43.0996C605.081 42.8444 604.997 42.6416 604.829 42.4912C604.665 42.3408 604.384 42.2132 603.988 42.1084L602.737 41.7871C601.493 41.4681 600.871 40.8232 600.871 39.8525ZM607.492 39.8525C607.492 39.2419 607.738 38.7428 608.23 38.3555C608.727 37.9635 609.365 37.7676 610.144 37.7676C610.878 37.7676 611.489 37.9635 611.976 38.3555C612.464 38.7474 612.722 39.2441 612.749 39.8457H611.614C611.573 39.4993 611.418 39.2282 611.149 39.0322C610.885 38.8363 610.536 38.7383 610.103 38.7383C609.67 38.7383 609.322 38.8363 609.057 39.0322C608.793 39.2236 608.661 39.4766 608.661 39.791C608.661 40.2741 609.055 40.6159 609.844 40.8164L610.944 41.083C611.66 41.2653 612.163 41.5023 612.455 41.7939C612.751 42.0811 612.899 42.4867 612.899 43.0107C612.899 43.6305 612.635 44.1387 612.106 44.5352C611.578 44.9271 610.899 45.123 610.069 45.123C609.294 45.123 608.654 44.9316 608.148 44.5488C607.647 44.1615 607.364 43.651 607.301 43.0176H608.49C608.622 43.7741 609.174 44.1523 610.144 44.1523C610.623 44.1523 611.001 44.0589 611.279 43.8721C611.562 43.6807 611.703 43.4232 611.703 43.0996C611.703 42.8444 611.619 42.6416 611.45 42.4912C611.286 42.3408 611.006 42.2132 610.609 42.1084L609.358 41.7871C608.114 41.4681 607.492 40.8232 607.492 39.8525Z" fill="black"/>
<defs>
<linearGradient id="paint0_linear_332_2064" x1="555.117" y1="12" x2="0" y2="12" gradientUnits="userSpaceOnUse">
<stop/>
<stop offset="1" stop-color="#E6E6E6"/>
</linearGradient>
<linearGradient id="paint1_linear_332_2064" x1="564.883" y1="12" x2="1120" y2="12" gradientUnits="userSpaceOnUse">
<stop/>
<stop offset="1" stop-color="#E6E6E6"/>
</linearGradient>
</defs>
</svg>
